<svg version="1.1" id="Layer_1" xmlns="http://www.w3.org/2000/svg" xmlns:xlink="http://www.w3.org/1999/xlink" x="0px" y="0px"
	 width="100%" viewBox="0 0 500 250" enable-background="new 0 0 500 250" xml:space="preserve">
<path fill="#FEFEFE" opacity="1.000000" stroke="none" 
	d="
M465.000000,251.000000 
	C310.051483,251.000000 155.602997,251.000000 1.077244,251.000000 
	C1.077244,167.746002 1.077244,84.491905 1.077244,1.118908 
	C167.666611,1.118908 334.333282,1.118908 500.993988,1.118908 
	C500.993988,84.396912 500.993988,167.698456 500.990967,251.000000 
	C489.158661,251.000000 477.329315,251.000000 465.000000,251.000000 
M14.091743,141.467880 
	C14.091743,144.884155 14.091743,148.300446 14.091743,151.814728 
	C18.908468,151.814728 22.866879,151.814728 27.688036,151.814728 
	C27.688036,141.185654 27.688036,130.746933 27.688036,120.308212 
	C29.657696,121.557632 30.460854,122.947289 31.179174,124.379494 
	C35.133312,132.263306 39.280075,140.061172 42.906822,148.093506 
	C44.452892,151.517654 46.637924,152.243668 49.926609,152.051132 
	C53.473358,151.843460 56.933365,152.745224 58.999195,148.089050 
	C62.638870,139.885574 67.042961,132.020065 71.171883,124.036263 
	C71.709503,122.996704 72.512733,122.094513 73.192932,121.128693 
	C73.556450,121.236504 73.919960,121.344322 74.283470,121.452141 
	C74.283470,131.487137 74.283470,141.522125 74.283470,151.710663 
	C78.985077,151.710663 83.048882,151.710663 87.719795,151.710663 
	C87.719795,149.603531 87.721252,147.815536 87.719551,146.027527 
	C87.709274,135.204727 87.683495,124.381927 87.691383,113.559143 
	C87.700584,100.944611 87.711029,101.109276 75.265213,100.939865 
	C71.633224,100.890427 69.970734,102.267982 68.515091,105.334763 
	C63.733318,115.409134 58.695522,125.362282 53.723061,135.345535 
	C52.973091,136.851273 52.047005,138.269302 50.786327,140.446381 
	C49.458466,137.803680 48.616661,136.192566 47.831123,134.554474 
	C43.081814,124.650688 38.403156,114.712204 33.541660,104.863914 
	C32.821308,103.404648 31.332975,101.392464 30.071716,101.294968 
	C24.853155,100.891579 19.585312,101.125771 14.091483,101.125771 
	C14.091483,114.850288 14.091483,127.663025 14.091743,141.467880 
M366.320282,111.247025 
	C366.261322,123.236870 366.382996,135.231812 366.045380,147.213806 
	C365.927307,151.402252 367.498596,152.170670 371.237152,152.127121 
	C386.558594,151.948730 401.883301,152.053543 417.206726,152.024963 
	C418.637817,152.022293 420.068512,151.814651 421.432251,151.707458 
	C421.432251,148.857681 421.432251,146.475555 421.432251,143.695908 
	C410.883606,143.695908 400.749939,143.697388 390.616302,143.695526 
	C379.197571,143.693436 379.194275,143.691788 380.360748,132.149902 
	C380.389893,131.861084 380.699707,131.600632 381.317871,130.655121 
	C394.421173,130.655121 407.974304,130.655121 421.435638,130.655121 
	C421.435638,127.571236 421.435638,125.184212 421.435638,122.672119 
	C420.234985,122.561157 419.422607,122.421211 418.610168,122.420769 
	C407.284119,122.414551 395.957367,122.360001 384.632538,122.480789 
	C381.623322,122.512878 380.078888,121.893600 380.058838,118.396255 
	C380.018768,111.406204 380.864258,110.314369 387.997284,110.299843 
	C399.124268,110.277176 410.251312,110.293839 421.646484,110.293839 
	C421.646484,107.189423 421.646484,104.608459 421.646484,101.796501 
	C406.624298,101.796501 391.848511,101.528862 377.091980,101.944672 
	C372.067017,102.086266 367.983063,105.040962 366.320282,111.247025 
M170.145157,134.065765 
	C170.060028,136.562988 169.917587,139.059799 169.899521,141.557510 
	C169.814560,153.302521 169.826996,153.302811 182.555359,151.494919 
	C182.555359,148.159058 182.493378,144.701019 182.571304,141.246155 
	C182.665421,137.074402 183.477661,133.263245 188.000961,131.507065 
	C192.684204,129.688782 196.141739,131.821716 199.024124,135.120270 
	C202.086853,138.625183 205.444260,142.065048 207.635712,146.097076 
	C211.664108,153.508926 217.805450,152.324905 224.925308,151.638931 
	C219.785797,144.602951 215.078033,138.158020 210.247620,131.545181 
	C211.468521,131.057693 211.763504,130.870483 212.079224,130.823914 
	C221.746262,129.398392 226.237793,123.970367 225.560059,114.513496 
	C224.898010,105.275810 220.063995,101.077408 209.954773,101.047638 
	C200.124359,101.018684 190.293793,101.048271 180.463287,101.051460 
	C177.034607,101.052574 173.605927,101.051636 169.962463,101.051636 
	C169.962463,104.131203 169.962463,106.386185 169.962463,109.259254 
	C171.991135,109.259254 173.782089,109.257469 175.573029,109.259544 
	C185.403503,109.270958 195.235092,109.200180 205.064026,109.329224 
	C210.240997,109.397186 213.195511,111.883095 212.898529,115.722740 
	C212.525986,120.539330 208.971512,121.486122 205.058594,121.552429 
	C198.728897,121.659691 192.395996,121.561005 186.064575,121.584908 
	C177.554489,121.617043 172.907623,125.041275 170.145157,134.065765 
M238.719757,107.275826 
	C232.144623,118.145248 237.794571,129.021667 251.060410,130.528610 
	C256.328918,131.127106 261.698700,130.780624 267.015045,131.024216 
	C274.074738,131.347702 276.914734,133.121674 276.941467,136.960648 
	C276.971008,141.200836 274.001892,142.987396 266.818573,142.998260 
	C257.214783,143.012787 247.610931,143.001846 237.865372,143.001846 
	C237.865372,146.267563 237.865372,148.971344 237.865372,151.838272 
	C250.919556,151.838272 263.553131,151.942047 276.182068,151.746979 
	C278.585602,151.709854 281.084717,150.751114 283.341583,149.764374 
	C288.499908,147.509140 291.725708,141.778885 291.452789,135.949142 
	C291.205566,130.667923 288.174042,126.362534 282.253998,124.891411 
	C276.996307,123.584885 271.449890,123.420021 266.023193,122.821350 
	C262.733917,122.458488 259.235565,122.788689 256.203156,121.735947 
	C254.292267,121.072540 251.811966,118.396889 251.855911,116.682030 
	C251.910507,114.551155 253.868301,111.752785 255.811234,110.581223 
	C257.894196,109.325218 260.909760,109.343208 263.527008,109.296738 
	C271.600800,109.153366 279.678741,109.244423 287.802124,109.244423 
	C287.802124,106.209656 287.802124,103.955551 287.802124,101.548981 
	C274.743561,101.548981 261.965088,101.193161 249.230698,101.785484 
	C245.813187,101.944443 242.530014,104.991684 238.719757,107.275826 
M112.294846,120.667770 
	C107.427757,130.793930 102.560669,140.920105 97.693573,151.046265 
	C97.946045,151.537079 98.198517,152.027908 98.450981,152.518723 
	C102.839264,151.878967 108.299896,152.594452 111.309845,150.212769 
	C114.234688,147.898438 116.579895,146.892624 119.942879,146.943115 
	C124.597633,147.013016 129.256195,146.893387 133.908905,147.015656 
	C138.150131,147.127106 143.138397,145.365723 145.364151,151.205399 
	C145.521683,151.618698 146.499832,151.921280 147.101685,151.930511 
	C151.189346,151.993256 155.278412,151.963318 160.081131,151.963318 
	C158.768478,149.037582 157.802490,146.782379 156.754532,144.565933 
	C151.356461,133.149002 145.308517,121.986244 140.748383,110.245026 
	C137.746826,102.516846 133.350006,99.451698 125.591759,101.137085 
	C123.659653,101.556816 121.247337,102.763100 120.339081,104.344795 
	C117.449768,109.376350 115.165627,114.755409 112.294846,120.667770 
M447.605927,101.615540 
	C443.982849,101.433815 440.347015,101.021492 436.744995,101.220680 
	C435.754211,101.275467 434.062164,103.147362 434.049164,104.202171 
	C433.864807,119.177811 433.867828,134.156784 434.014740,149.133087 
	C434.024200,150.099411 435.516174,151.801346 436.426056,151.877563 
	C440.170380,152.191238 443.956268,152.008789 448.276245,152.008789 
	C448.276245,147.389969 447.908508,143.378586 448.415680,139.481033 
	C448.714508,137.184540 450.072021,133.531143 451.537323,133.217667 
	C453.974274,132.696320 457.473419,133.645126 459.464417,135.272583 
	C463.424438,138.509598 467.121765,142.301163 470.093811,146.459503 
	C474.666992,152.858078 480.647461,152.618576 488.079895,151.530579 
	C479.116394,142.260635 470.654541,133.509491 461.928314,124.484932 
	C470.633759,116.766182 478.848450,109.482567 488.010162,101.359268 
	C479.344299,100.709564 472.730072,100.287659 467.069092,106.633995 
	C461.970947,112.349358 455.599548,116.928940 449.789734,122.009476 
	C449.216064,121.821022 448.642395,121.632568 448.068726,121.444115 
	C448.068726,115.081940 448.068726,108.719765 447.605927,101.615540 
M308.538452,100.985168 
	C307.207581,100.986000 305.876678,100.984253 304.545807,100.988083 
	C297.601898,101.008041 297.259796,101.464493 299.091309,108.924751 
	C303.412781,108.924751 307.867279,108.857353 312.319092,108.938148 
	C323.069733,109.133247 321.530762,107.506470 321.614319,118.169235 
	C321.701355,129.282227 321.633698,140.396454 321.633698,151.703766 
	C326.418274,151.703766 330.630737,151.703766 335.375458,151.703766 
	C335.375458,137.449448 335.375458,123.541374 335.375458,108.933640 
	C343.106049,108.933640 350.328735,108.933640 357.645630,108.933640 
	C357.645630,105.988243 357.645630,103.759445 357.645630,100.985703 
	C341.381256,100.985703 325.454895,100.985703 308.538452,100.985168 
z"/>
<path fill="#565457" opacity="1.000000" stroke="none" 
	d="
M14.091614,140.971832 
	C14.091483,127.663025 14.091483,114.850288 14.091483,101.125771 
	C19.585312,101.125771 24.853155,100.891579 30.071716,101.294968 
	C31.332975,101.392464 32.821308,103.404648 33.541660,104.863914 
	C38.403156,114.712204 43.081814,124.650688 47.831123,134.554474 
	C48.616661,136.192566 49.458466,137.803680 50.786327,140.446381 
	C52.047005,138.269302 52.973091,136.851273 53.723061,135.345535 
	C58.695522,125.362282 63.733318,115.409134 68.515091,105.334763 
	C69.970734,102.267982 71.633224,100.890427 75.265213,100.939865 
	C87.711029,101.109276 87.700584,100.944611 87.691383,113.559143 
	C87.683495,124.381927 87.709274,135.204727 87.719551,146.027527 
	C87.721252,147.815536 87.719795,149.603531 87.719795,151.710663 
	C83.048882,151.710663 78.985077,151.710663 74.283470,151.710663 
	C74.283470,141.522125 74.283470,131.487137 74.283470,121.452141 
	C73.919960,121.344322 73.556450,121.236504 73.192932,121.128693 
	C72.512733,122.094513 71.709503,122.996704 71.171883,124.036263 
	C67.042961,132.020065 62.638870,139.885574 58.999195,148.089050 
	C56.933365,152.745224 53.473358,151.843460 49.926609,152.051132 
	C46.637924,152.243668 44.452892,151.517654 42.906822,148.093506 
	C39.280075,140.061172 35.133312,132.263306 31.179174,124.379494 
	C30.460854,122.947289 29.657696,121.557632 27.688036,120.308212 
	C27.688036,130.746933 27.688036,141.185654 27.688036,151.814728 
	C22.866879,151.814728 18.908468,151.814728 14.091743,151.814728 
	C14.091743,148.300446 14.091743,144.884155 14.091614,140.971832 
z"/>
<path fill="#555355" opacity="1.000000" stroke="none" 
	d="
M366.415039,110.840546 
	C367.983063,105.040962 372.067017,102.086266 377.091980,101.944672 
	C391.848511,101.528862 406.624298,101.796501 421.646484,101.796501 
	C421.646484,104.608459 421.646484,107.189423 421.646484,110.293839 
	C410.251312,110.293839 399.124268,110.277176 387.997284,110.299843 
	C380.864258,110.314369 380.018768,111.406204 380.058838,118.396255 
	C380.078888,121.893600 381.623322,122.512878 384.632538,122.480789 
	C395.957367,122.360001 407.284119,122.414551 418.610168,122.420769 
	C419.422607,122.421211 420.234985,122.561157 421.435638,122.672119 
	C421.435638,125.184212 421.435638,127.571236 421.435638,130.655121 
	C407.974304,130.655121 394.421173,130.655121 381.317871,130.655121 
	C380.699707,131.600632 380.389893,131.861084 380.360748,132.149902 
	C379.194275,143.691788 379.197571,143.693436 390.616302,143.695526 
	C400.749939,143.697388 410.883606,143.695908 421.432251,143.695908 
	C421.432251,146.475555 421.432251,148.857681 421.432251,151.707458 
	C420.068512,151.814651 418.637817,152.022293 417.206726,152.024963 
	C401.883301,152.053543 386.558594,151.948730 371.237152,152.127121 
	C367.498596,152.170670 365.927307,151.402252 366.045380,147.213806 
	C366.382996,135.231812 366.261322,123.236870 366.415039,110.840546 
z"/>
<path fill="#555355" opacity="1.000000" stroke="none" 
	d="
M170.183182,133.635468 
	C172.907623,125.041275 177.554489,121.617043 186.064575,121.584908 
	C192.395996,121.561005 198.728897,121.659691 205.058594,121.552429 
	C208.971512,121.486122 212.525986,120.539330 212.898529,115.722740 
	C213.195511,111.883095 210.240997,109.397186 205.064026,109.329224 
	C195.235092,109.200180 185.403503,109.270958 175.573029,109.259544 
	C173.782089,109.257469 171.991135,109.259254 169.962463,109.259254 
	C169.962463,106.386185 169.962463,104.131203 169.962463,101.051636 
	C173.605927,101.051636 177.034607,101.052574 180.463287,101.051460 
	C190.293793,101.048271 200.124359,101.018684 209.954773,101.047638 
	C220.063995,101.077408 224.898010,105.275810 225.560059,114.513496 
	C226.237793,123.970367 221.746262,129.398392 212.079224,130.823914 
	C211.763504,130.870483 211.468521,131.057693 210.247620,131.545181 
	C215.078033,138.158020 219.785797,144.602951 224.925308,151.638931 
	C217.805450,152.324905 211.664108,153.508926 207.635712,146.097076 
	C205.444260,142.065048 202.086853,138.625183 199.024124,135.120270 
	C196.141739,131.821716 192.684204,129.688782 188.000961,131.507065 
	C183.477661,133.263245 182.665421,137.074402 182.571304,141.246155 
	C182.493378,144.701019 182.555359,148.159058 182.555359,151.494919 
	C169.826996,153.302811 169.814560,153.302521 169.899521,141.557510 
	C169.917587,139.059799 170.060028,136.562988 170.183182,133.635468 
z"/>
<path fill="#555356" opacity="1.000000" stroke="none" 
	d="
M238.952454,106.994431 
	C242.530014,104.991684 245.813187,101.944443 249.230698,101.785484 
	C261.965088,101.193161 274.743561,101.548981 287.802124,101.548981 
	C287.802124,103.955551 287.802124,106.209656 287.802124,109.244423 
	C279.678741,109.244423 271.600800,109.153366 263.527008,109.296738 
	C260.909760,109.343208 257.894196,109.325218 255.811234,110.581223 
	C253.868301,111.752785 251.910507,114.551155 251.855911,116.682030 
	C251.811966,118.396889 254.292267,121.072540 256.203156,121.735947 
	C259.235565,122.788689 262.733917,122.458488 266.023193,122.821350 
	C271.449890,123.420021 276.996307,123.584885 282.253998,124.891411 
	C288.174042,126.362534 291.205566,130.667923 291.452789,135.949142 
	C291.725708,141.778885 288.499908,147.509140 283.341583,149.764374 
	C281.084717,150.751114 278.585602,151.709854 276.182068,151.746979 
	C263.553131,151.942047 250.919556,151.838272 237.865372,151.838272 
	C237.865372,148.971344 237.865372,146.267563 237.865372,143.001846 
	C247.610931,143.001846 257.214783,143.012787 266.818573,142.998260 
	C274.001892,142.987396 276.971008,141.200836 276.941467,136.960648 
	C276.914734,133.121674 274.074738,131.347702 267.015045,131.024216 
	C261.698700,130.780624 256.328918,131.127106 251.060410,130.528610 
	C237.794571,129.021667 232.144623,118.145248 238.952454,106.994431 
z"/>
<path fill="#545255" opacity="1.000000" stroke="none" 
	d="
M112.471245,120.333984 
	C115.165627,114.755409 117.449768,109.376350 120.339081,104.344795 
	C121.247337,102.763100 123.659653,101.556816 125.591759,101.137085 
	C133.350006,99.451698 137.746826,102.516846 140.748383,110.245026 
	C145.308517,121.986244 151.356461,133.149002 156.754532,144.565933 
	C157.802490,146.782379 158.768478,149.037582 160.081131,151.963318 
	C155.278412,151.963318 151.189346,151.993256 147.101685,151.930511 
	C146.499832,151.921280 145.521683,151.618698 145.364151,151.205399 
	C143.138397,145.365723 138.150131,147.127106 133.908905,147.015656 
	C129.256195,146.893387 124.597633,147.013016 119.942879,146.943115 
	C116.579895,146.892624 114.234688,147.898438 111.309845,150.212769 
	C108.299896,152.594452 102.839264,151.878967 98.450981,152.518723 
	C98.198517,152.027908 97.946045,151.537079 97.693573,151.046265 
	C102.560669,140.920105 107.427757,130.793930 112.471245,120.333984 
M138.756851,135.948654 
	C135.692368,128.399261 132.627884,120.849876 129.038986,112.008575 
	C124.942719,121.579681 121.471489,129.690353 117.661880,138.591675 
	C124.754578,138.591675 131.004562,138.640686 137.250809,138.510971 
	C137.834137,138.498856 138.393997,137.356293 138.756851,135.948654 
z"/>
<path fill="#555356" opacity="1.000000" stroke="none" 
	d="
M447.837341,101.986565 
	C448.068726,108.719765 448.068726,115.081940 448.068726,121.444115 
	C448.642395,121.632568 449.216064,121.821022 449.789734,122.009476 
	C455.599548,116.928940 461.970947,112.349358 467.069092,106.633995 
	C472.730072,100.287659 479.344299,100.709564 488.010162,101.359268 
	C478.848450,109.482567 470.633759,116.766182 461.928314,124.484932 
	C470.654541,133.509491 479.116394,142.260635 488.079895,151.530579 
	C480.647461,152.618576 474.666992,152.858078 470.093811,146.459503 
	C467.121765,142.301163 463.424438,138.509598 459.464417,135.272583 
	C457.473419,133.645126 453.974274,132.696320 451.537323,133.217667 
	C450.072021,133.531143 448.714508,137.184540 448.415680,139.481033 
	C447.908508,143.378586 448.276245,147.389969 448.276245,152.008789 
	C443.956268,152.008789 440.170380,152.191238 436.426056,151.877563 
	C435.516174,151.801346 434.024200,150.099411 434.014740,149.133087 
	C433.867828,134.156784 433.864807,119.177811 434.049164,104.202171 
	C434.062164,103.147362 435.754211,101.275467 436.744995,101.220680 
	C440.347015,101.021492 443.982849,101.433815 447.837341,101.986565 
z"/>
<path fill="#555355" opacity="1.000000" stroke="none" 
	d="
M309.033508,100.985435 
	C325.454895,100.985703 341.381256,100.985703 357.645630,100.985703 
	C357.645630,103.759445 357.645630,105.988243 357.645630,108.933640 
	C350.328735,108.933640 343.106049,108.933640 335.375458,108.933640 
	C335.375458,123.541374 335.375458,137.449448 335.375458,151.703766 
	C330.630737,151.703766 326.418274,151.703766 321.633698,151.703766 
	C321.633698,140.396454 321.701355,129.282227 321.614319,118.169235 
	C321.530762,107.506470 323.069733,109.133247 312.319092,108.938148 
	C307.867279,108.857353 303.412781,108.924751 299.091309,108.924751 
	C297.259796,101.464493 297.601898,101.008041 304.545807,100.988083 
	C305.876678,100.984253 307.207581,100.986000 309.033508,100.985435 
z"/>
<path fill="#F0F0F0" opacity="1.000000" stroke="none" 
	d="
M138.860809,136.343628 
	C138.393997,137.356293 137.834137,138.498856 137.250809,138.510971 
	C131.004562,138.640686 124.754578,138.591675 117.661880,138.591675 
	C121.471489,129.690353 124.942719,121.579681 129.038986,112.008575 
	C132.627884,120.849876 135.692368,128.399261 138.860809,136.343628 
z"/>
</svg>